<?xml version="1.0" encoding="utf-8"?>
<!-- Generator: Adobe Illustrator 27.2.0, SVG Export Plug-In . SVG Version: 6.00 Build 0)  -->
<svg version="1.1" id="smily" xmlns="http://www.w3.org/2000/svg" xmlns:xlink="http://www.w3.org/1999/xlink" x="0px" y="0px"
	 viewBox="0 0 487 568" style="enable-background:new 0 0 487 568;" xml:space="preserve">
<style type="text/css">
	.st0{fill:#FFE269;}
	.st1{fill:#FFFFFF;}
	.st2{fill:#FCF0C0;}
</style>
<g id="face">
	<circle class="st0" cx="241" cy="243" r="234"/>
</g>
<path id="mouth" class="st1" d="M100,292h281.8c0,0-18,78-140.9,78S100,292,100,292z"/>
<ellipse id="eye-l" class="st1" cx="141.5" cy="154" rx="37.5" ry="65"/>
<ellipse id="eye-r" class="st1" cx="342.5" cy="154" rx="37.5" ry="65"/>
<circle id="pupil-l" cx="137.5" cy="182.5" r="24.5"/>
<circle id="pupil-r" cx="337.5" cy="182.5" r="24.5"/>
<path id="eyelash-l" class="st2" d="M179,154c-37,2-37,0-75,0c0-35.9,16.8-65,37.5-65S179,118.1,179,154z"/>
<path id="eyelash-r" class="st2" d="M380,154c-37,2-37,0-75,0c0-35.9,16.8-65,37.5-65S380,118.1,380,154z"/>
<g>
	<path d="M166.8,522.8c2.3,1.4,5.6,2.6,9,2.6c5.2,0,8.2-2.7,8.2-6.7c0-3.7-2.1-5.7-7.4-7.8c-6.4-2.3-10.3-5.6-10.3-11.1
		c0-6.1,5-10.6,12.6-10.6c4,0,6.9,0.9,8.6,1.9l-1.4,4.1c-1.3-0.7-3.9-1.9-7.4-1.9c-5.3,0-7.4,3.2-7.4,5.9c0,3.7,2.4,5.5,7.8,7.5
		c6.6,2.6,10,5.7,10,11.5c0,6-4.5,11.3-13.7,11.3c-3.8,0-7.9-1.1-10-2.5L166.8,522.8z"/>
	<path d="M229,511.8c-0.3-5.5-0.6-12-0.6-16.9h-0.2c-1.3,4.6-3,9.5-4.9,14.8l-6.9,19h-3.8l-6.3-18.6c-1.9-5.5-3.4-10.6-4.5-15.2
		h-0.1c-0.1,4.9-0.4,11.4-0.8,17.3l-1,16.8H195l2.7-39.1h6.4l6.7,18.9c1.6,4.8,3,9.1,3.9,13.2h0.2c1-3.9,2.4-8.2,4.1-13.2l7-18.9
		h6.4l2.4,39.1H230L229,511.8z"/>
	<path d="M247.7,489.8v39.1h-5v-39.1H247.7z"/>
	<path d="M256.6,489.8h5v34.9h16.7v4.2h-21.7V489.8z"/>
	<path d="M287.8,528.9v-16.6l-12.4-22.5h5.7l5.5,10.8c1.5,3,2.7,5.3,3.9,8.1h0.1c1.1-2.6,2.4-5.1,3.9-8.1l5.6-10.8h5.7l-13.1,22.4
		v16.6H287.8z"/>
</g>
</svg>
