<?xml version="1.0" encoding="utf-8"?>
<!-- Generator: Adobe Illustrator 27.2.0, SVG Export Plug-In . SVG Version: 6.00 Build 0)  -->
<svg version="1.1" id="smily" xmlns="http://www.w3.org/2000/svg" xmlns:xlink="http://www.w3.org/1999/xlink" x="0px" y="0px"
	 viewBox="0 0 487 568" style="enable-background:new 0 0 487 568;" xml:space="preserve">
<style type="text/css">
	.st0{fill:#FFE269;}
	.st1{fill:#FFFFFF;}
	.st2{fill:#FCF0C0;}
	.st3{fill:none;}
	.st4{font-family:'MyriadPro-Regular';}
	.st5{font-size:58px;}
</style>
<g id="face">
	<circle class="st0" cx="241" cy="243" r="234"/>
</g>
<path id="mouth" class="st1" d="M100,292h281.8c0,0-18,78-140.9,78S100,292,100,292z"/>
<ellipse id="eye-l" class="st1" cx="141.5" cy="154" rx="37.5" ry="65"/>
<ellipse id="eye-r" class="st1" cx="342.5" cy="154" rx="37.5" ry="65"/>
<circle id="pupil-l" cx="137.5" cy="182.5" r="24.5"/>
<circle id="pupil-r" cx="337.5" cy="182.5" r="24.5"/>
<path id="eyelash-l" class="st2" d="M179,154c-37,2-37,0-75,0c0-35.9,16.8-65,37.5-65S179,118.1,179,154z"/>
<path id="eyelash-r" class="st2" d="M380,154c-37,2-37,0-75,0c0-35.9,16.8-65,37.5-65S380,118.1,380,154z"/>
<rect x="48.6" y="487.8" class="st3" width="372" height="66"/>
<text transform="matrix(1 0 0 1 160.6333 528.9395)" class="st4 st5">SMILY</text>
</svg>
